<svg width="341" height="153" viewBox="0 0 341 153" fill="none" xmlns="http://www.w3.org/2000/svg">
<path d="M50.3633 30.2402H48.3633V32.2402H50.3633V30.2402ZM62.4922 30.2402H64.4922V28.2402H62.4922V30.2402ZM62.4922 33V35H64.4922V33H62.4922ZM46.9707 33H44.9707V35H46.9707V33ZM46.9707 7.40625V5.40625H44.9707V7.40625H46.9707ZM50.3633 7.40625H52.3633V5.40625H50.3633V7.40625ZM50.3633 32.2402H62.4922V28.2402H50.3633V32.2402ZM60.4922 30.2402V33H64.4922V30.2402H60.4922ZM62.4922 31H46.9707V35H62.4922V31ZM48.9707 33V7.40625H44.9707V33H48.9707ZM46.9707 9.40625H50.3633V5.40625H46.9707V9.40625ZM48.3633 7.40625V30.2402H52.3633V7.40625H48.3633ZM80.8262 26.3203L82.7045 25.6333L82.2242 24.3203H80.8262V26.3203ZM70.1035 26.3203V24.3203H68.6986L68.2221 25.642L70.1035 26.3203ZM67.6953 33V35H69.1003L69.5768 33.6783L67.6953 33ZM64.2148 33L62.3464 32.2865L61.3102 35H64.2148V33ZM73.9883 7.40625V5.40625H72.6112L72.1199 6.69277L73.9883 7.40625ZM76.9414 7.40625L78.8094 6.69165L78.3176 5.40625H76.9414V7.40625ZM86.7324 33V35H89.6389L88.6004 32.2854L86.7324 33ZM83.2695 33L81.3912 33.6871L81.8715 35H83.2695V33ZM71.123 23.543L69.2429 22.861L68.2702 25.543H71.123V23.543ZM79.8242 23.543V25.543H82.6811L81.7035 22.8586L79.8242 23.543ZM75.4648 11.5723L77.3441 10.8879L75.461 5.71707L73.5847 10.8903L75.4648 11.5723ZM80.8262 24.3203H70.1035V28.3203H80.8262V24.3203ZM68.2221 25.642L65.8139 32.3217L69.5768 33.6783L71.985 26.9986L68.2221 25.642ZM67.6953 31H64.2148V35H67.6953V31ZM66.0833 33.7135L75.8567 8.11973L72.1199 6.69277L62.3464 32.2865L66.0833 33.7135ZM73.9883 9.40625H76.9414V5.40625H73.9883V9.40625ZM75.0734 8.12085L84.8644 33.7146L88.6004 32.2854L78.8094 6.69165L75.0734 8.12085ZM86.7324 31H83.2695V35H86.7324V31ZM85.1478 32.3129L82.7045 25.6333L78.9479 27.0074L81.3912 33.6871L85.1478 32.3129ZM71.123 25.543H79.8242V21.543H71.123V25.543ZM81.7035 22.8586L77.3441 10.8879L73.5856 12.2566L77.945 24.2273L81.7035 22.8586ZM73.5847 10.8903L69.2429 22.861L73.0032 24.2249L77.345 12.2542L73.5847 10.8903ZM109.848 33V35H111.848V33H109.848ZM106.455 33L104.781 34.0939L105.373 35H106.455V33ZM93.5703 13.2773L95.2447 12.1835L91.5703 6.55916V13.2773H93.5703ZM93.5703 33V35H95.5703V33H93.5703ZM90.1777 33H88.1777V35H90.1777V33ZM90.1777 7.40625V5.40625H88.1777V7.40625H90.1777ZM93.5703 7.40625L95.2455 6.31371L94.6537 5.40625H93.5703V7.40625ZM106.49 27.2168L104.815 28.3093L108.49 33.9447V27.2168H106.49ZM106.49 7.40625V5.40625H104.49V7.40625H106.49ZM109.848 7.40625H111.848V5.40625H109.848V7.40625ZM109.848 31H106.455V35H109.848V31ZM108.129 31.9061L95.2447 12.1835L91.896 14.3712L104.781 34.0939L108.129 31.9061ZM91.5703 13.2773V33H95.5703V13.2773H91.5703ZM93.5703 31H90.1777V35H93.5703V31ZM92.1777 33V7.40625H88.1777V33H92.1777ZM90.1777 9.40625H93.5703V5.40625H90.1777V9.40625ZM91.8951 8.49879L104.815 28.3093L108.165 26.1243L95.2455 6.31371L91.8951 8.49879ZM108.49 27.2168V7.40625H104.49V27.2168H108.49ZM106.49 9.40625H109.848V5.40625H106.49V9.40625ZM107.848 7.40625V33H111.848V7.40625H107.848ZM115.842 33H113.842V35H115.842V33ZM115.842 7.40625V5.40625H113.842V7.40625H115.842ZM132.928 13.084L131.146 13.9922L131.15 14.0013L132.928 13.084ZM134.352 19.3418H136.352L136.352 19.3318L134.352 19.3418ZM132.945 27.3223L131.168 26.405L131.163 26.4141L132.945 27.3223ZM128.955 31.5059L127.977 29.7614L127.972 29.7643L128.955 31.5059ZM122.926 33V35H122.936L122.946 34.9999L122.926 33ZM119.217 10.1836V8.18359H117.217V10.1836H119.217ZM119.217 30.2402H117.217V32.2402H119.217V30.2402ZM128.832 27.8145L127.344 26.4777L127.339 26.4837L128.832 27.8145ZM128.955 12.6445L127.424 13.9314L127.429 13.9374L127.434 13.9434L128.955 12.6445ZM123.154 10.1836L123.173 8.18368L123.164 8.18359H123.154V10.1836ZM117.842 33V7.40625H113.842V33H117.842ZM115.842 9.40625H123.066V5.40625H115.842V9.40625ZM123.066 9.40625C124.989 9.40625 126.605 9.82801 127.975 10.6164L129.97 7.14926C127.918 5.96886 125.597 5.40625 123.066 5.40625V9.40625ZM127.975 10.6164C129.339 11.4009 130.39 12.5091 131.146 13.9922L134.71 12.1758C133.614 10.026 132.028 8.33352 129.97 7.14926L127.975 10.6164ZM131.15 14.0013C131.923 15.4971 132.341 17.2638 132.352 19.3517L136.352 19.3318C136.338 16.7089 135.808 14.3037 134.705 12.1667L131.15 14.0013ZM132.352 19.3418V20.9766H136.352V19.3418H132.352ZM132.352 20.9766C132.352 23.1291 131.935 24.9193 131.168 26.405L134.723 28.2396C135.831 26.0924 136.352 23.6522 136.352 20.9766H132.352ZM131.163 26.4141C130.412 27.8879 129.357 28.9872 127.977 29.7614L129.933 33.2503C132.021 32.0792 133.627 30.3894 134.727 28.2305L131.163 26.4141ZM127.972 29.7643C126.587 30.5459 124.919 30.9796 122.905 31.0001L122.946 34.9999C125.526 34.9736 127.877 34.4111 129.938 33.2474L127.972 29.7643ZM122.926 31H115.842V35H122.926V31ZM117.217 10.1836V30.2402H121.217V10.1836H117.217ZM119.217 32.2402H122.768V28.2402H119.217V32.2402ZM122.768 32.2402C125.815 32.2402 128.428 31.2733 130.325 29.1452L127.339 26.4837C126.353 27.59 124.924 28.2402 122.768 28.2402V32.2402ZM130.32 29.1512C132.209 27.0488 133.012 24.2022 133.012 20.9062H129.012C129.012 23.5869 128.362 25.3457 127.344 26.4777L130.32 29.1512ZM133.012 20.9062V19.4121H129.012V20.9062H133.012ZM133.012 19.4121C133.012 16.2087 132.255 13.4294 130.476 11.3457L127.434 13.9434C128.397 15.0706 129.012 16.8031 129.012 19.4121H133.012ZM130.486 11.3576C128.68 9.20876 126.144 8.21145 123.173 8.18368L123.136 12.1835C125.18 12.2026 126.512 12.8459 127.424 13.9314L130.486 11.3576ZM123.154 8.18359H119.217V12.1836H123.154V8.18359ZM148.854 22.6465L150.616 21.701L150.05 20.6465H148.854V22.6465ZM142.842 22.6465V20.6465H140.842V22.6465H142.842ZM142.842 33V35H144.842V33H142.842ZM139.449 33H137.449V35H139.449V33ZM139.449 7.40625V5.40625H137.449V7.40625H139.449ZM154.566 9.375L153.272 10.9L153.278 10.9048L154.566 9.375ZM155.604 19.2715L153.99 18.0894L153.983 18.0999L155.604 19.2715ZM152.018 21.9258L151.304 20.0573L149.152 20.8787L150.268 22.8942L152.018 21.9258ZM158.029 32.7891H160.029V32.2726L159.779 31.8207L158.029 32.7891ZM158.029 33V35H160.029V33H158.029ZM154.408 33L152.646 33.9455L153.212 35H154.408V33ZM142.842 19.8867H140.842V21.8867H142.842V19.8867ZM152.018 18.5859L150.704 17.0775L150.696 17.0852L152.018 18.5859ZM152.088 11.4668L150.75 12.9534L150.759 12.9616L152.088 11.4668ZM148.01 10.1836L148.023 8.18359H148.01V10.1836ZM142.842 10.1836V8.18359H140.842V10.1836H142.842ZM148.854 20.6465H142.842V24.6465H148.854V20.6465ZM140.842 22.6465V33H144.842V22.6465H140.842ZM142.842 31H139.449V35H142.842V31ZM141.449 33V7.40625H137.449V33H141.449ZM139.449 9.40625H147.922V5.40625H139.449V9.40625ZM147.922 9.40625C150.527 9.40625 152.213 10.0011 153.272 10.9L155.86 7.84998C153.826 6.12392 151.082 5.40625 147.922 5.40625V9.40625ZM153.278 10.9048C154.283 11.751 154.904 13.0389 154.904 15.1055H158.904C158.904 12.1564 157.967 9.62405 155.855 7.84518L153.278 10.9048ZM154.904 15.1055C154.904 16.3128 154.584 17.2787 153.99 18.0894L157.217 20.4535C158.357 18.8971 158.904 17.0856 158.904 15.1055H154.904ZM153.983 18.0999C153.383 18.9292 152.523 19.5923 151.304 20.0573L152.731 23.7943C154.583 23.0874 156.113 21.9809 157.224 20.4431L153.983 18.0999ZM150.268 22.8942L156.279 33.7575L159.779 31.8207L153.767 20.9574L150.268 22.8942ZM156.029 32.7891V33H160.029V32.7891H156.029ZM158.029 31H154.408V35H158.029V31ZM156.171 32.0545L150.616 21.701L147.091 23.592L152.646 33.9455L156.171 32.0545ZM142.842 21.8867H148.027V17.8867H142.842V21.8867ZM148.027 21.8867C150.051 21.8867 151.898 21.3569 153.34 20.0867L150.696 17.0852C150.169 17.5493 149.355 17.8867 148.027 17.8867V21.8867ZM153.331 20.0944C154.81 18.8065 155.512 17.0719 155.512 15.1055H151.512C151.512 16.0453 151.217 16.631 150.704 17.0775L153.331 20.0944ZM155.512 15.1055C155.512 13.1034 154.894 11.2853 153.417 9.97198L150.759 12.9616C151.18 13.3357 151.512 13.9434 151.512 15.1055H155.512ZM153.426 9.98021C151.999 8.69586 150.093 8.19726 148.023 8.18364L147.997 12.1836C149.489 12.1934 150.302 12.5502 150.75 12.9534L153.426 9.98021ZM148.01 8.18359H142.842V12.1836H148.01V8.18359ZM140.842 10.1836V19.8867H144.842V10.1836H140.842ZM179.668 7.40625H181.668V5.40625H179.668V7.40625ZM179.668 24.8086L181.668 24.8183V24.8086H179.668ZM177.383 30.7324L175.958 29.3291L175.952 29.3347L177.383 30.7324ZM171.266 33.3164L171.344 35.3149L171.377 35.3136L171.411 35.3111L171.266 33.3164ZM170.369 33.3516V35.3516H170.408L170.448 35.35L170.369 33.3516ZM161.141 24.8438H159.141V24.8526L159.141 24.8614L161.141 24.8438ZM161.141 7.40625V5.40625H159.141V7.40625H161.141ZM164.48 7.40625H166.48V5.40625H164.48V7.40625ZM166.01 29.0625L164.587 30.4686L164.596 30.4767L166.01 29.0625ZM174.746 29.0625L173.332 27.6483L173.324 27.6565L174.746 29.0625ZM176.275 7.40625V5.40625H174.275V7.40625H176.275ZM177.668 7.40625V24.8086H181.668V7.40625H177.668ZM177.668 24.7989C177.658 26.7596 177.058 28.2118 175.958 29.3291L178.808 32.1357C180.731 30.1827 181.654 27.6857 181.668 24.8183L177.668 24.7989ZM175.952 29.3347C174.86 30.4523 173.316 31.162 171.121 31.3217L171.411 35.3111C174.371 35.0958 176.905 34.0828 178.813 32.1302L175.952 29.3347ZM171.187 31.3179L170.291 31.3531L170.448 35.35L171.344 35.3149L171.187 31.3179ZM170.369 31.3516C167.938 31.3516 166.228 30.7042 165.017 29.6036L162.327 32.5643C164.444 34.4872 167.198 35.3516 170.369 35.3516V31.3516ZM165.017 29.6036C163.839 28.5339 163.16 27.0252 163.141 24.8261L159.141 24.8614C159.168 27.9592 160.176 30.6106 162.327 32.5643L165.017 29.6036ZM163.141 24.8438V7.40625H159.141V24.8438H163.141ZM161.141 9.40625H164.48V5.40625H161.141V9.40625ZM162.48 7.40625V24.7383H166.48V7.40625H162.48ZM162.48 24.7383C162.48 26.9637 163.103 28.9669 164.587 30.4686L167.432 27.6564C166.878 27.0956 166.48 26.2159 166.48 24.7383H162.48ZM164.596 30.4767C166.095 31.9766 168.122 32.5918 170.369 32.5918V28.5918C168.843 28.5918 167.963 28.1875 167.424 27.6483L164.596 30.4767ZM170.369 32.5918C172.63 32.5918 174.673 31.9815 176.168 30.4685L173.324 27.6565C172.804 28.1825 171.929 28.5918 170.369 28.5918V32.5918ZM176.16 30.4767C177.653 28.9836 178.275 26.9801 178.275 24.7559H174.275C174.275 26.2348 173.878 27.1023 173.332 27.6483L176.16 30.4767ZM178.275 24.7559V7.40625H174.275V24.7559H178.275ZM176.275 9.40625H179.668V5.40625H176.275V9.40625ZM188.369 22.9805V20.9805H186.369V22.9805H188.369ZM188.369 33V35H190.369V33H188.369ZM184.994 33H182.994V35H184.994V33ZM184.994 7.40625V5.40625H182.994V7.40625H184.994ZM201.008 9.55078L199.667 11.0346L199.672 11.0395L201.008 9.55078ZM201.061 20.9766L202.368 22.4902L202.369 22.4894L201.061 20.9766ZM188.369 20.2207H186.369V22.2207H188.369V20.2207ZM198.582 18.9551L199.902 20.458L199.912 20.4489L198.582 18.9551ZM194.627 10.1836L194.669 8.18403L194.648 8.18359H194.627V10.1836ZM188.369 10.1836V8.18359H186.369V10.1836H188.369ZM186.369 22.9805V33H190.369V22.9805H186.369ZM188.369 31H184.994V35H188.369V31ZM186.994 33V7.40625H182.994V33H186.994ZM184.994 9.40625H194.434V5.40625H184.994V9.40625ZM194.434 9.40625C196.898 9.40625 198.555 10.0302 199.667 11.0346L202.349 8.06693C200.296 6.21199 197.571 5.40625 194.434 5.40625V9.40625ZM199.672 11.0395C200.798 12.0494 201.398 13.3775 201.398 15.2285H205.398C205.398 12.3686 204.405 9.91157 202.343 8.06202L199.672 11.0395ZM201.398 15.2285C201.398 17.2629 200.782 18.5739 199.752 19.4637L202.369 22.4894C204.457 20.684 205.398 18.1629 205.398 15.2285H201.398ZM199.753 19.4629C198.696 20.3764 197.011 20.9805 194.398 20.9805V24.9805C197.575 24.9805 200.332 24.2486 202.368 22.4902L199.753 19.4629ZM194.398 20.9805H188.369V24.9805H194.398V20.9805ZM188.369 22.2207H194.434V18.2207H188.369V22.2207ZM194.434 22.2207C196.526 22.2207 198.45 21.7324 199.902 20.458L197.262 17.4522C196.792 17.8652 195.951 18.2207 194.434 18.2207V22.2207ZM199.912 20.4489C201.401 19.1232 202.023 17.2875 202.023 15.2637H198.023C198.023 16.4508 197.685 17.076 197.252 17.4613L199.912 20.4489ZM202.023 15.2637C202.023 13.2815 201.379 11.5072 199.96 10.1583L197.204 13.0565C197.707 13.5358 198.023 14.1989 198.023 15.2637H202.023ZM199.96 10.1583C198.55 8.81682 196.707 8.22678 194.669 8.18403L194.585 12.1832C195.899 12.2107 196.692 12.5699 197.204 13.0565L199.96 10.1583ZM194.627 8.18359H188.369V12.1836H194.627V8.18359ZM186.369 10.1836V20.2207H190.369V10.1836H186.369Z" fill="#431567"/>
<path d="M44 87L53.72 41.28H73.088C76.064 41.28 78.656 41.592 80.864 42.216C83.12 42.792 84.968 43.776 86.408 45.168C87.896 46.56 89 48.384 89.72 50.64C90.488 52.896 90.872 55.656 90.872 58.92C90.872 62.424 90.416 65.856 89.504 69.216C88.64 72.576 87.176 75.576 85.112 78.216C83.048 80.856 80.336 82.992 76.976 84.624C73.664 86.208 69.56 87 64.664 87H44ZM63.728 81.96C65.312 81.96 66.704 81.312 67.904 80.016C69.152 78.672 70.208 76.992 71.072 74.976C71.984 72.912 72.728 70.656 73.304 68.208C73.928 65.712 74.408 63.312 74.744 61.008C75.128 58.704 75.392 56.64 75.536 54.816C75.728 52.992 75.824 51.696 75.824 50.928C75.824 49.44 75.512 48.288 74.888 47.472C74.312 46.608 73.28 46.176 71.792 46.176H68.336L60.632 81.96H63.728ZM130.927 87H114.079L113.071 75.552H99.7511L94.6391 87H87.6551L108.895 41.28H125.959L130.927 87ZM102.127 70.296H112.567L110.911 50.712L102.127 70.296ZM172.728 87H155.88L147.888 53.952L140.832 87H134.352L144.072 41.28H161.28L168.84 74.76L175.968 41.28H182.592L172.728 87ZM209.056 54.528C209.2 53.808 209.272 52.824 209.272 51.576C209.272 50.856 209.224 50.16 209.128 49.488C209.032 48.768 208.864 48.144 208.624 47.616C208.384 47.04 208.024 46.608 207.544 46.32C207.064 45.984 206.44 45.816 205.672 45.816C204.808 45.816 204.016 46.008 203.296 46.392C202.576 46.776 201.928 47.28 201.352 47.904C200.824 48.48 200.392 49.176 200.056 49.992C199.768 50.76 199.624 51.576 199.624 52.44C199.624 53.688 199.936 54.648 200.56 55.32C201.232 55.992 202.096 56.544 203.152 56.976C204.208 57.408 205.408 57.768 206.752 58.056C208.096 58.344 209.488 58.68 210.928 59.064C212.128 59.4 213.328 59.832 214.528 60.36C215.728 60.888 216.784 61.608 217.695 62.52C218.656 63.384 219.424 64.536 220 65.976C220.576 67.368 220.864 69.12 220.864 71.232C220.864 74.256 220.264 76.8 219.064 78.864C217.864 80.928 216.208 82.608 214.096 83.904C211.984 85.2 209.464 86.136 206.536 86.712C203.656 87.288 200.512 87.576 197.104 87.576C193.648 87.576 190.816 87.36 188.608 86.928C186.448 86.448 184.744 85.944 183.496 85.416C182.008 84.792 180.904 84.072 180.183 83.256L182.632 73.392H195.304C195.256 73.824 195.208 74.424 195.16 75.192C195.112 75.912 195.088 76.488 195.088 76.92C195.088 77.496 195.16 78.096 195.304 78.72C195.448 79.344 195.664 79.92 195.952 80.448C196.288 80.976 196.744 81.408 197.32 81.744C197.896 82.08 198.616 82.248 199.48 82.248C200.44 82.248 201.28 82.032 202 81.6C202.768 81.168 203.392 80.64 203.872 80.016C204.4 79.344 204.784 78.624 205.024 77.856C205.312 77.04 205.456 76.248 205.456 75.48C205.456 74.424 205.192 73.536 204.664 72.816C204.184 72.096 203.512 71.496 202.648 71.016C201.784 70.488 200.776 70.056 199.624 69.72C198.52 69.336 197.368 68.952 196.168 68.568C195.016 68.232 193.792 67.824 192.496 67.344C191.248 66.864 190.096 66.192 189.04 65.328C187.984 64.464 187.096 63.384 186.376 62.088C185.704 60.744 185.368 59.04 185.368 56.976C185.368 53.904 186.136 51.336 187.672 49.272C189.256 47.16 191.224 45.456 193.576 44.16C195.976 42.864 198.592 41.952 201.424 41.424C204.256 40.848 206.944 40.56 209.488 40.56C212.848 40.56 215.728 40.968 218.128 41.784C220.576 42.552 222.424 43.464 223.672 44.52L221.008 54.528H209.056Z" fill="#E856EB"/>
<path d="M44 87L43.0219 86.792L42.7651 88H44V87ZM53.72 41.28V40.28H52.9102L52.7419 41.072L53.72 41.28ZM80.864 42.216L80.592 43.1783L80.6043 43.1818L80.6166 43.1849L80.864 42.216ZM86.408 45.168L85.713 45.887L85.7189 45.8927L85.7248 45.8983L86.408 45.168ZM89.72 50.64L88.7673 50.944L88.7703 50.9532L88.7734 50.9623L89.72 50.64ZM89.504 69.216L88.5388 68.954L88.5355 68.967L89.504 69.216ZM85.112 78.216L85.8998 78.8319L85.112 78.216ZM76.976 84.624L77.4075 85.5262L77.4129 85.5235L76.976 84.624ZM67.904 80.016L67.1712 79.3355L67.1702 79.3366L67.904 80.016ZM71.072 74.976L70.1573 74.5718L70.1529 74.5821L71.072 74.976ZM73.304 68.208L72.3338 67.9654L72.3306 67.979L73.304 68.208ZM74.744 61.008L73.7576 60.8436L73.7559 60.8536L73.7545 60.8637L74.744 61.008ZM75.536 54.816L74.5415 54.7113L74.5401 54.7243L74.5391 54.7373L75.536 54.816ZM74.888 47.472L74.056 48.0267L74.0739 48.0537L74.0936 48.0794L74.888 47.472ZM68.336 46.176V45.176H67.5284L67.3584 45.9655L68.336 46.176ZM60.632 81.96L59.6544 81.7495L59.3938 82.96H60.632V81.96ZM44.9781 87.208L54.6981 41.4879L52.7419 41.072L43.0219 86.792L44.9781 87.208ZM53.72 42.28H73.088V40.28H53.72V42.28ZM73.088 42.28C75.9977 42.28 78.4942 42.5854 80.592 43.1783L81.136 41.2537C78.8178 40.5985 76.1303 40.28 73.088 40.28V42.28ZM80.6166 43.1849C82.7319 43.725 84.417 44.6342 85.713 45.887L87.103 44.449C85.519 42.9178 83.5081 41.859 81.1114 41.2471L80.6166 43.1849ZM85.7248 45.8983C87.0691 47.1558 88.0908 48.8242 88.7673 50.944L90.6727 50.336C89.9092 47.9438 88.7229 45.9642 87.0912 44.4377L85.7248 45.8983ZM88.7734 50.9623C89.4957 53.084 89.872 55.728 89.872 58.92H91.872C91.872 55.584 91.4803 52.708 90.6667 50.3177L88.7734 50.9623ZM89.872 58.92C89.872 62.3361 89.4276 65.68 88.5389 68.954L90.4691 69.478C91.4044 66.032 91.872 62.5119 91.872 58.92H89.872ZM88.5355 68.967C87.7046 72.1983 86.3003 75.0725 84.3242 77.6001L85.8998 78.8319C88.0517 76.0795 89.5754 72.9537 90.4725 69.465L88.5355 68.967ZM84.3242 77.6001C82.3643 80.1069 79.7779 82.1513 76.5391 83.7245L77.4129 85.5235C80.8941 83.8327 83.7317 81.6051 85.8998 78.8319L84.3242 77.6001ZM76.5445 83.7219C73.4044 85.2237 69.4582 86 64.664 86V88C69.6618 88 73.9236 87.1923 77.4075 85.5261L76.5445 83.7219ZM64.664 86H44V88H64.664V86ZM63.728 82.96C65.6242 82.96 67.2726 82.1697 68.6378 80.6954L67.1702 79.3366C66.1354 80.4543 64.9998 80.96 63.728 80.96V82.96ZM68.6368 80.6964C69.9765 79.2537 71.0905 77.4713 71.9911 75.3699L70.1529 74.5821C69.3255 76.5127 68.3275 78.0903 67.1712 79.3355L68.6368 80.6964ZM71.9867 75.3802C72.9263 73.2537 73.6889 70.9384 74.2774 68.437L72.3306 67.979C71.7671 70.3736 71.0417 72.5703 70.1573 74.5718L71.9867 75.3802ZM74.2741 68.4505C74.9054 65.9255 75.3922 63.4926 75.7335 61.1523L73.7545 60.8637C73.4238 63.1314 72.9506 65.4985 72.3339 67.9655L74.2741 68.4505ZM75.7304 61.1724C76.1179 58.8473 76.3861 56.754 76.5329 54.8947L74.5391 54.7373C74.3979 56.526 74.1381 58.5607 73.7576 60.8436L75.7304 61.1724ZM76.5305 54.9207C76.7225 53.0963 76.824 51.7538 76.824 50.928H74.824C74.824 51.6382 74.7335 52.8877 74.5415 54.7113L76.5305 54.9207ZM76.824 50.928C76.824 49.3155 76.4878 47.9178 75.6824 46.8645L74.0936 48.0794C74.5362 48.6582 74.824 49.5645 74.824 50.928H76.824ZM75.7201 46.9173C74.8861 45.6664 73.4582 45.176 71.792 45.176V47.176C73.1018 47.176 73.7379 47.5496 74.056 48.0267L75.7201 46.9173ZM71.792 45.176H68.336V47.176H71.792V45.176ZM67.3584 45.9655L59.6544 81.7495L61.6096 82.1705L69.3136 46.3865L67.3584 45.9655ZM60.632 82.96H63.728V80.96H60.632V82.96ZM130.927 87V88H132.042L131.921 86.892L130.927 87ZM114.079 87L113.083 87.0877L113.163 88H114.079V87ZM113.071 75.552L114.067 75.4643L113.987 74.552H113.071V75.552ZM99.7511 75.552V74.552H99.1024L98.838 75.1443L99.7511 75.552ZM94.6391 87V88H95.2877L95.5522 87.4077L94.6391 87ZM87.6551 87L86.7481 86.5787L86.0879 88H87.6551V87ZM108.895 41.28V40.28H108.257L107.988 40.8587L108.895 41.28ZM125.959 41.28L126.953 41.172L126.856 40.28H125.959V41.28ZM102.127 70.296L101.215 69.8867L100.583 71.296H102.127V70.296ZM112.567 70.296V71.296H113.655L113.564 70.2117L112.567 70.296ZM110.911 50.712L111.908 50.6277L111.582 46.7735L109.999 50.3027L110.911 50.712ZM130.927 86H114.079V88H130.927V86ZM115.075 86.9123L114.067 75.4643L112.075 75.6397L113.083 87.0877L115.075 86.9123ZM113.071 74.552H99.7511V76.552H113.071V74.552ZM98.838 75.1443L93.726 86.5923L95.5522 87.4077L100.664 75.9597L98.838 75.1443ZM94.6391 86H87.6551V88H94.6391V86ZM88.562 87.4213L109.802 41.7013L107.988 40.8587L86.7481 86.5787L88.562 87.4213ZM108.895 42.28H125.959V40.28H108.895V42.28ZM124.965 41.388L129.933 87.108L131.921 86.892L126.953 41.172L124.965 41.388ZM102.127 71.296H112.567V69.296H102.127V71.296ZM113.564 70.2117L111.908 50.6277L109.915 50.7963L111.571 70.3803L113.564 70.2117ZM109.999 50.3027L101.215 69.8867L103.039 70.7052L111.823 51.1212L109.999 50.3027ZM172.728 87V88H173.535L173.705 87.2109L172.728 87ZM155.88 87L154.908 87.2351L155.093 88H155.88V87ZM147.888 53.952L148.86 53.7169L146.91 53.7432L147.888 53.952ZM140.832 87V88H141.641L141.81 87.2088L140.832 87ZM134.352 87L133.373 86.792L133.117 88H134.352V87ZM144.072 41.28V40.28H143.262L143.093 41.072L144.072 41.28ZM161.28 41.28L162.255 41.0597L162.079 40.28H161.28V41.28ZM168.84 74.76L167.864 74.9803L169.818 74.9682L168.84 74.76ZM175.968 41.28V40.28H175.158L174.989 41.0718L175.968 41.28ZM182.592 41.28L183.569 41.4909L183.83 40.28H182.592V41.28ZM172.728 86H155.88V88H172.728V86ZM156.852 86.7649L148.86 53.7169L146.916 54.1871L154.908 87.2351L156.852 86.7649ZM146.91 53.7432L139.854 86.7912L141.81 87.2088L148.866 54.1608L146.91 53.7432ZM140.832 86H134.352V88H140.832V86ZM135.33 87.208L145.05 41.4879L143.093 41.072L133.373 86.792L135.33 87.208ZM144.072 42.28H161.28V40.28H144.072V42.28ZM160.304 41.5003L167.864 74.9803L169.815 74.5397L162.255 41.0597L160.304 41.5003ZM169.818 74.9682L176.946 41.4882L174.989 41.0718L167.861 74.5518L169.818 74.9682ZM175.968 42.28H182.592V40.28H175.968V42.28ZM181.614 41.0691L171.75 86.7891L173.705 87.2109L183.569 41.4909L181.614 41.0691ZM209.055 54.528L208.075 54.3319L207.836 55.528H209.055V54.528ZM209.128 49.488L208.136 49.6202L208.138 49.6294L209.128 49.488ZM208.624 47.616L207.7 48.0006L207.707 48.0153L207.713 48.0298L208.624 47.616ZM207.544 46.32L206.97 47.1392L206.999 47.1594L207.029 47.1775L207.544 46.32ZM203.296 46.392L203.766 47.2744V47.2744L203.296 46.392ZM201.352 47.904L200.617 47.2257L200.614 47.2283L201.352 47.904ZM200.055 49.992L199.131 49.6113L199.125 49.626L199.119 49.6409L200.055 49.992ZM200.56 55.32L199.827 56.0005L199.839 56.014L199.852 56.0271L200.56 55.32ZM203.152 56.976L202.773 57.9015L203.152 56.976ZM206.751 58.056L206.542 59.0338L206.751 58.056ZM210.928 59.064L211.197 58.101L211.185 58.0978L210.928 59.064ZM214.527 60.36L214.125 61.2753H214.125L214.527 60.36ZM217.695 62.52L216.988 63.2271L217.007 63.2457L217.027 63.2633L217.695 62.52ZM219.999 65.976L219.071 66.3474L219.075 66.3583L219.999 65.976ZM219.064 78.864L219.928 79.3666L219.064 78.864ZM214.096 83.904L213.572 83.0517L214.096 83.904ZM206.536 86.712L206.342 85.7308L206.339 85.7314L206.536 86.712ZM188.607 86.928L188.391 87.9042L188.403 87.907L188.415 87.9094L188.607 86.928ZM183.495 85.416L183.885 84.495L183.882 84.4938L183.495 85.416ZM180.184 83.256L179.213 83.0151L179.087 83.5243L179.434 83.9176L180.184 83.256ZM182.632 73.392V72.392H181.849L181.661 73.1511L182.632 73.392ZM195.303 73.392L196.297 73.5024L196.421 72.392H195.303V73.392ZM195.16 75.192L196.157 75.2585L196.158 75.2544L195.16 75.192ZM195.303 78.72L194.329 78.9449L195.303 78.72ZM195.952 80.448L195.074 80.9269L195.09 80.9564L195.108 80.9849L195.952 80.448ZM197.32 81.744L196.816 82.6078L197.32 81.744ZM201.999 81.6L201.509 80.7284L201.497 80.7353L201.485 80.7425L201.999 81.6ZM203.872 80.016L203.085 79.3981L203.079 79.4063L203.872 80.016ZM205.023 77.856L204.081 77.5232L204.074 77.5403L204.069 77.5577L205.023 77.856ZM204.663 72.816L203.831 73.3707L203.844 73.3893L203.857 73.4074L204.663 72.816ZM202.648 71.016L202.126 71.8693L202.144 71.8801L202.162 71.8902L202.648 71.016ZM199.624 69.72L199.295 70.6645L199.319 70.6729L199.344 70.68L199.624 69.72ZM196.167 68.568L196.472 67.6156L196.46 67.6116L196.447 67.608L196.167 68.568ZM192.495 67.344L192.136 68.2774L192.148 68.2817L192.495 67.344ZM189.04 65.328L189.673 64.554L189.04 65.328ZM186.376 62.088L185.481 62.5352L185.491 62.5546L185.501 62.5736L186.376 62.088ZM187.671 49.272L186.871 48.672L186.869 48.675L187.671 49.272ZM193.576 44.16L193.1 43.2801L193.093 43.2842L193.576 44.16ZM201.424 41.424L201.607 42.4071L201.615 42.4056L201.623 42.4039L201.424 41.424ZM218.128 41.784L217.806 42.7308L217.817 42.7346L217.828 42.7381L218.128 41.784ZM223.671 44.52L224.638 44.7772L224.801 44.1655L224.317 43.7566L223.671 44.52ZM221.008 54.528V55.528H221.776L221.974 54.7852L221.008 54.528ZM210.036 54.7241C210.199 53.9102 210.271 52.851 210.271 51.576H208.271C208.271 52.797 208.2 53.7058 208.075 54.3319L210.036 54.7241ZM210.271 51.576C210.271 50.8115 210.221 50.0681 210.117 49.3466L208.138 49.6294C208.226 50.2519 208.271 50.9005 208.271 51.576H210.271ZM210.119 49.3558C210.013 48.5619 209.823 47.8388 209.534 47.2022L207.713 48.0298C207.904 48.4492 208.05 48.9741 208.136 49.6202L210.119 49.3558ZM209.547 47.2314C209.234 46.4819 208.742 45.873 208.058 45.4625L207.029 47.1775C207.305 47.343 207.533 47.5981 207.7 48.0006L209.547 47.2314ZM208.117 45.5008C207.424 45.0154 206.581 44.816 205.671 44.816V46.816C206.298 46.816 206.703 46.9526 206.97 47.1392L208.117 45.5008ZM205.671 44.816C204.653 44.816 203.698 45.0438 202.825 45.5096L203.766 47.2744C204.333 46.9721 204.962 46.816 205.671 46.816V44.816ZM202.825 45.5096C202.002 45.9485 201.266 46.5228 200.617 47.2257L202.086 48.5823C202.589 48.0372 203.149 47.6035 203.766 47.2744L202.825 45.5096ZM200.614 47.2283C199.997 47.9013 199.506 48.7006 199.131 49.6113L200.98 50.3727C201.277 49.6514 201.65 49.0587 202.089 48.5797L200.614 47.2283ZM199.119 49.6409C198.787 50.5271 198.624 51.4626 198.624 52.44H200.624C200.624 51.6894 200.748 50.9929 200.992 50.3431L199.119 49.6409ZM198.624 52.44C198.624 53.848 198.977 55.0854 199.827 56.0005L201.292 54.6395C200.894 54.2106 200.624 53.528 200.624 52.44H198.624ZM199.852 56.0271C200.635 56.8098 201.618 57.4291 202.773 57.9015L203.53 56.0505C202.573 55.6589 201.828 55.1742 201.267 54.6129L199.852 56.0271ZM202.773 57.9015C203.893 58.3599 205.151 58.7358 206.542 59.0338L206.961 57.0782C205.664 56.8002 204.522 56.4561 203.53 56.0504L202.773 57.9015ZM206.542 59.0338C207.869 59.3181 209.244 59.6501 210.67 60.0302L211.185 58.0978C209.731 57.7099 208.322 57.3699 206.961 57.0782L206.542 59.0338ZM210.658 60.027C211.81 60.3496 212.966 60.7653 214.125 61.2753L214.93 59.4447C213.689 58.8987 212.445 58.4504 211.197 58.101L210.658 60.027ZM214.125 61.2753C215.213 61.7542 216.166 62.4042 216.988 63.2271L218.403 61.8129C217.401 60.8118 216.242 60.0218 214.93 59.4447L214.125 61.2753ZM217.027 63.2633C217.852 64.0063 218.541 65.0214 219.071 66.3474L220.928 65.6046C220.306 64.0506 219.459 62.7617 218.364 61.7767L217.027 63.2633ZM219.075 66.3583C219.585 67.5909 219.863 69.2022 219.863 71.232H221.863C221.863 69.0378 221.566 67.1451 220.924 65.5936L219.075 66.3583ZM219.863 71.232C219.863 74.1258 219.29 76.4856 218.199 78.3614L219.928 79.3666C221.237 77.1144 221.863 74.3862 221.863 71.232H219.863ZM218.199 78.3614C217.085 80.2768 215.549 81.8388 213.572 83.0517L214.619 84.7563C216.866 83.3772 218.642 81.5792 219.928 79.3666L218.199 78.3614ZM213.572 83.0517C211.58 84.2742 209.177 85.1732 206.342 85.7308L206.729 87.6932C209.75 87.0988 212.387 86.1258 214.619 84.7563L213.572 83.0517ZM206.339 85.7314C203.533 86.2926 200.456 86.576 197.104 86.576V88.576C200.567 88.576 203.778 88.2834 206.732 87.6926L206.339 85.7314ZM197.104 86.576C193.682 86.576 190.92 86.3615 188.8 85.9466L188.415 87.9094C190.711 88.3585 193.613 88.576 197.104 88.576V86.576ZM188.824 85.9518C186.692 85.4778 185.054 84.9894 183.885 84.495L183.106 86.337C184.433 86.8986 186.203 87.4182 188.391 87.9042L188.824 85.9518ZM183.882 84.4938C182.472 83.9023 181.517 83.256 180.933 82.5944L179.434 83.9176C180.29 84.888 181.543 85.6817 183.109 86.3382L183.882 84.4938ZM181.154 83.4969L183.602 73.6329L181.661 73.1511L179.213 83.0151L181.154 83.4969ZM182.632 74.392H195.303V72.392H182.632V74.392ZM194.31 73.2816C194.259 73.7372 194.21 74.3557 194.161 75.1296L196.158 75.2544C196.205 74.4923 196.252 73.9108 196.297 73.5024L194.31 73.2816ZM194.162 75.1255C194.113 75.8551 194.087 76.4561 194.087 76.92H196.087C196.087 76.5199 196.11 75.9689 196.157 75.2585L194.162 75.1255ZM194.087 76.92C194.087 77.5796 194.17 78.2552 194.329 78.9449L196.278 78.4951C196.149 77.9368 196.087 77.4124 196.087 76.92H194.087ZM194.329 78.9449C194.492 79.6518 194.739 80.314 195.074 80.9269L196.829 79.9691C196.588 79.526 196.403 79.0362 196.278 78.4951L194.329 78.9449ZM195.108 80.9849C195.535 81.6561 196.111 82.1969 196.816 82.6078L197.823 80.8802C197.376 80.6191 197.04 80.2959 196.795 79.9111L195.108 80.9849ZM196.816 82.6078C197.583 83.0556 198.49 83.248 199.48 83.248V81.248C198.741 81.248 198.208 81.1043 197.823 80.8802L196.816 82.6078ZM199.48 83.248C200.594 83.248 201.617 82.9955 202.514 82.4575L201.485 80.7425C200.942 81.0685 200.285 81.248 199.48 81.248V83.248ZM202.49 82.4716C203.361 81.9814 204.093 81.3685 204.664 80.6257L203.079 79.4063C202.69 79.9115 202.174 80.3546 201.509 80.7284L202.49 82.4716ZM204.658 80.6338C205.256 79.8724 205.7 79.0452 205.978 78.1543L204.069 77.5577C203.867 78.2028 203.543 78.8156 203.085 79.3982L204.658 80.6338ZM205.966 78.1888C206.287 77.2793 206.456 76.3748 206.456 75.48H204.456C204.456 76.1212 204.336 76.8007 204.081 77.5232L205.966 78.1888ZM206.456 75.48C206.456 74.2514 206.145 73.1459 205.47 72.2246L203.857 73.4074C204.238 73.9261 204.456 74.5966 204.456 75.48H206.456ZM205.496 72.2613C204.915 71.391 204.116 70.6881 203.133 70.1418L202.162 71.8902C202.907 72.3039 203.452 72.801 203.831 73.3707L205.496 72.2613ZM203.169 70.1627C202.217 69.5811 201.125 69.1163 199.904 68.76L199.344 70.68C200.426 70.9957 201.35 71.3949 202.126 71.8693L203.169 70.1627ZM199.952 68.7755C198.84 68.3886 197.68 68.0019 196.472 67.6156L195.863 69.5204C197.055 69.9021 198.199 70.2834 199.295 70.6645L199.952 68.7755ZM196.447 67.608C195.321 67.2795 194.12 66.8792 192.843 66.4062L192.148 68.2817C193.463 68.7688 194.71 69.1845 195.887 69.528L196.447 67.608ZM192.854 66.4107C191.708 65.9696 190.648 65.3521 189.673 64.554L188.406 66.102C189.543 67.0319 190.787 67.7584 192.137 68.2773L192.854 66.4107ZM189.673 64.554C188.723 63.7767 187.914 62.7975 187.25 61.6024L185.501 62.5736C186.277 63.9705 187.244 65.1513 188.406 66.102L189.673 64.554ZM187.27 61.6408C186.688 60.4776 186.368 58.9396 186.368 56.976H184.368C184.368 59.1404 184.719 61.0104 185.481 62.5352L187.27 61.6408ZM186.368 56.976C186.368 54.0761 187.09 51.7289 188.474 49.869L186.869 48.675C185.181 50.9431 184.368 53.7318 184.368 56.976H186.368ZM188.471 49.872C189.969 47.8754 191.828 46.2646 194.058 45.0358L193.093 43.2842C190.619 44.6474 188.542 46.4446 186.872 48.672L188.471 49.872ZM194.051 45.0399C196.354 43.7959 198.871 42.9171 201.607 42.4071L201.24 40.4409C198.312 40.9869 195.597 41.9321 193.1 43.2801L194.051 45.0399ZM201.623 42.4039C204.398 41.8395 207.019 41.56 209.488 41.56V39.56C206.868 39.56 204.113 39.8565 201.224 40.4441L201.623 42.4039ZM209.488 41.56C212.771 41.56 215.537 41.9594 217.806 42.7308L218.449 40.8372C215.918 39.9766 212.924 39.56 209.488 39.56V41.56ZM217.828 42.7381C220.213 43.4865 221.92 44.3483 223.026 45.2834L224.317 43.7566C222.927 42.5797 220.938 41.6175 218.427 40.8299L217.828 42.7381ZM222.705 44.2628L220.041 54.2708L221.974 54.7852L224.638 44.7772L222.705 44.2628ZM221.008 53.528H209.055V55.528H221.008V53.528Z" fill="black"/>
<g filter="url(#filter0_d_3_16)">
<line x1="242" y1="111" x2="-1.56021e-09" y2="111" stroke="#913693" stroke-width="14"/>
</g>
<defs>
<filter id="filter0_d_3_16" x="-4" y="104" width="250" height="22" filterUnits="userSpaceOnUse" color-interpolation-filters="sRGB">
<feFlood flood-opacity="0" result="BackgroundImageFix"/>
<feColorMatrix in="SourceAlpha" type="matrix" values="0 0 0 0 0 0 0 0 0 0 0 0 0 0 0 0 0 0 127 0" result="hardAlpha"/>
<feOffset dy="4"/>
<feGaussianBlur stdDeviation="2"/>
<feComposite in2="hardAlpha" operator="out"/>
<feColorMatrix type="matrix" values="0 0 0 0 0 0 0 0 0 0 0 0 0 0 0 0 0 0 0.25 0"/>
<feBlend mode="normal" in2="BackgroundImageFix" result="effect1_dropShadow_3_16"/>
<feBlend mode="normal" in="SourceGraphic" in2="effect1_dropShadow_3_16" result="shape"/>
</filter>
</defs>
</svg>
